<?xml version="1.0" encoding="UTF-8"?>
<svg version="1.1" xmlns="http://www.w3.org/2000/svg" width="144" height="144">
<path d="M0 0 C11.70569328 10.01976691 20.75908399 24.7054401 22.625 40.1875 C23.32910464 51.16248887 24.04068809 62.90909089 19.625 73.1875 C19.25375 74.07912842 19.25375 74.07912842 18.875 74.98876953 C11.10612657 93.25551303 -0.99713783 104.5532074 -19.00390625 112.92578125 C-34.26808164 118.63879243 -53.30054527 118.26481396 -68.375 112.1875 C-86.34503749 103.77340432 -98.06792856 90.59148787 -105.375 72.1875 C-110.71261784 55.51413859 -109.56720224 37.57670902 -101.81640625 21.84375 C-92.37028541 4.43626444 -79.56856335 -6.93060156 -60.375 -12.8125 C-39.11914686 -18.53062387 -17.37504068 -13.11073954 0 0 Z M-77.375 16.1875 C-87.19478051 28.19799476 -92.73341014 40.48088279 -91.375 56.1875 C-89.08269463 70.01296679 -83.12549398 81.1569307 -72.109375 90.0078125 C-69.91775079 91.53275382 -67.70703387 92.88874909 -65.375 94.1875 C-64.69050781 94.57679687 -64.00601563 94.96609375 -63.30078125 95.3671875 C-51.55190238 101.31763632 -38.56998774 101.04586697 -26.24609375 97.21484375 C-13.22590085 92.30940709 -3.91368946 83.45681354 2.1953125 70.98046875 C7.35422189 58.554867 8.1308222 46.30462401 3.24609375 33.6015625 C-2.82978485 20.60397533 -11.49783836 10.81498949 -24.86328125 5.12890625 C-42.99575011 -1.24031391 -63.55043997 2.36293997 -77.375 16.1875 Z " fill="#00BFA2" transform="translate(114.375,20.8125)"/>
<path d="M0 0 C6.62402808 5.73999426 10.35852787 12.85110404 11.05859375 21.609375 C10.8877013 28.58178678 8.24775826 34.87619411 3.859375 40.2421875 C-1.24278723 45.06566019 -7.80488311 47.66946525 -14.78125 48.0625 C-24.06833368 47.80089201 -29.92394748 44.1862161 -36.3125 37.625 C-40.50739002 31.09961552 -42.05089382 24.74158446 -41 17 C-38.50974997 7.80214102 -33.90547051 2.98441323 -25.96484375 -1.984375 C-17.7662606 -6.22221122 -7.6632473 -4.5902337 0 0 Z " fill="#00BFA2" transform="translate(87,50)"/>
</svg>
