<?xml version="1.0" encoding="iso-8859-1"?>
<!-- Generator: Adobe Illustrator 23.0.3, SVG Export Plug-In . SVG Version: 6.00 Build 0)  -->
<svg version="1.1" id="Layer_1" xmlns="http://www.w3.org/2000/svg" xmlns:xlink="http://www.w3.org/1999/xlink" x="0px" y="0px"
	 viewBox="0 0 48 48" style="enable-background:new 0 0 48 48;" xml:space="preserve">
<path style="fill:#42A5F5;" d="M42.911,24.54l-15.679-6.214c-0.402-0.159-0.815-0.278-1.232-0.376V26c0,1.105-0.895,2-2,2
	s-2-0.895-2-2v-8.049c-0.417,0.098-0.829,0.216-1.232,0.376L5.089,24.54c-1.4,0.555-1.466,2.488-0.107,3.135l13.365,6.365
	c3.572,1.701,7.735,1.701,11.307,0l13.365-6.365C44.377,27.029,44.311,25.095,42.911,24.54z"/>
<ellipse style="fill:#AED581;" cx="12" cy="26.5" rx="3" ry="1.5"/>
<path style="fill:#1E88E5;" d="M30.42,36.442c-1.99,0.946-4.21,1.446-6.42,1.446s-4.43-0.501-6.421-1.446
	c0,0-8.997-4.284-12.344-5.881C4.662,30.287,4,30.701,4,31.329l0,2.319c0,0.33,0.192,0.631,0.494,0.773l12.981,6.12
	c4.126,1.945,8.923,1.945,13.049,0l12.981-6.12C43.808,34.279,44,33.978,44,33.648l0-2.314c0-0.63-0.664-1.045-1.239-0.771
	C39.41,32.162,30.42,36.442,30.42,36.442z"/>
<circle style="fill:#EF5350;" cx="24" cy="11" r="5"/>
</svg>