<?xml version="1.0" encoding="iso-8859-1"?>
<!-- Generator: Adobe Illustrator 24.0.2, SVG Export Plug-In . SVG Version: 6.00 Build 0)  -->
<svg version="1.1" id="&#x421;&#x43B;&#x43E;&#x439;_1"
	 xmlns="http://www.w3.org/2000/svg" xmlns:xlink="http://www.w3.org/1999/xlink" x="0px" y="0px" viewBox="0 0 50 50"
	 style="enable-background:new 0 0 50 50;" xml:space="preserve">
<path d="M8.898,41.402l4.343-4.154C10.018,34.152,8,29.811,8,25c0-9.374,7.626-17,17-17s17,7.626,17,17
	c0,4.811-2.018,9.152-5.241,12.248l4.343,4.154C45.355,37.226,48,31.417,48,25C48,12.318,37.683,2,25,2S2,12.318,2,25
	C2,31.417,4.645,37.226,8.898,41.402z"/>
<g>
	<polygon points="25,31 20,26 32.232,15.232 35.768,18.768 	"/>
</g>
</svg>